<?xml version="1.0" standalone="no"?>
<!DOCTYPE svg PUBLIC "-//W3C//DTD SVG 20010904//EN"
 "http://www.w3.org/TR/2001/REC-SVG-20010904/DTD/svg10.dtd">
<svg version="1.0" xmlns="http://www.w3.org/2000/svg"
 width="700.000000pt" height="700.000000pt" viewBox="0 0 700.000000 700.000000"
 preserveAspectRatio="xMidYMid meet">
<metadata>
Created by potrace 1.14, written by Peter Selinger 2001-2017
</metadata>
<g transform="translate(0.000000,700.000000) scale(0.100000,-0.100000)"
fill="#000000" stroke="none">
<path d="M0 3500 l0 -3500 3500 0 3500 0 0 3500 0 3500 -3500 0 -3500 0 0
-3500z m6030 1956 c251 -38 405 -109 546 -251 135 -135 191 -284 181 -475 -22
-399 -373 -821 -1207 -1448 -575 -433 -1213 -806 -1890 -1104 -327 -145 -875
-357 -1139 -442 -374 -121 -854 -203 -1251 -213 -239 -6 -366 4 -516 42 -139
35 -197 67 -289 160 -66 65 -89 98 -127 175 -111 226 -126 432 -48 671 80 245
245 485 524 765 241 241 483 437 860 698 l169 116 -84 1 -84 0 305 152 c1045
520 1248 616 1560 740 555 218 1152 369 1655 417 61 5 128 12 150 14 100 10
585 -3 685 -18z"/>
<path d="M5500 4864 c-530 -22 -1128 -159 -1740 -399 -544 -213 -1027 -470
-1615 -860 -397 -262 -662 -472 -895 -705 -297 -297 -432 -546 -376 -694 14
-36 22 -45 49 -50 305 -57 896 11 1380 158 129 40 491 174 772 286 865 346
1622 784 2328 1347 390 311 626 553 709 728 46 99 37 118 -72 149 -98 28 -359
47 -540 40z"/>
</g>
</svg>
