<svg xmlns="http://www.w3.org/2000/svg" viewBox="0 0 409.12 137.36" fill="white"><defs><clipPath id="b"><rect width="409.12" height="137.36" fill="none"/></clipPath></defs><g clip-path="url(#b)"><path d="M379.15,55.66l-25.25-8.12-2.5-.8c-3.73-1.14-6.42-2.56-8.17-4.33-1.7-1.72-2.51-3.76-2.51-6.19,0-6.04,6.01-11.26,15.61-12.01,.78-.06,1.58-.1,2.4-.1,3.46,0,6.73,.48,9.78,1.35,8.06,2.29,14.45,7.36,17.8,13.96l20.25-5.9c-6.06-15.46-23.91-28.7-47.99-28.7-8.03,0-15.3,1.75-21.37,4.75-9.77-.56-21.78-.1-36.04,1.38-25.95,2.7-57.86,8.72-90.64,17.01l-8.24-20.9h-23.92l-13.3,33.72c-51.06,15.94-104.89,37.97-130.48,57.8h-12.76V7.03H0V118.63H19.33c-.22,1.94-.02,3.81,.65,5.6,.98,2.62,2.83,4.88,5.51,6.72,6.24,4.26,17.47,6.41,33.52,6.41,7.19,0,15.35-.43,24.46-1.29,34.47-3.27,78.47-12.35,123.9-25.58,3.49-1.02,7.01-2.07,10.55-3.15l4.29,11.3h24.07l-7.13-18.09c35-11.69,69.75-25.81,94.4-39.72,3.07,1.77,6.51,3.23,10.19,4.4l28.54,8.93c10.68,3.51,14.67,7.49,14.67,13.39,0,7.33-8.13,14.03-21.21,14.03-16.1,0-27.42-9.25-31.89-20.89l-20.89,6.38c6.22,17.38,24.24,33.8,51.5,33.8s44.64-15.47,44.64-34.6-12.91-25.35-29.97-30.61M82.22,125.52c-48.15,4.55-52.19-4.66-52.22-4.74-.23-.63-.07-1.42,.19-2.15h47.29v-20.09h-24.18c21.98-13.35,58.59-29.62,106.75-45.05l-25.22,63.97c-19.05,3.82-36.87,6.57-52.61,8.06m121.94-25.2c-14.62,4.26-29.06,8.07-43.08,11.39l25.16-66.18,4.09-10.77,3.3,8.67,20.5,53.92c-3.28,.99-6.6,1.98-9.97,2.97m31.11-9.65l-20.82-52.81c48.19-12.29,85.42-17.4,109.94-17.99-3.78,4.96-5.89,10.79-5.83,16.97-.07,6.68,2.2,12.29,6.14,16.85-21.02,11.41-51.38,24.41-89.43,36.98"/><path d="M269.57,0C259.97,0,252.19,7.78,252.19,17.38s7.78,17.39,17.38,17.39,17.39-7.78,17.39-17.39S279.17,0,269.57,0"/></g></svg>